<mxfile host="app.diagrams.net" agent="Mozilla/5.0 (X11; Linux x86_64) AppleWebKit/537.36 (KHTML, like Gecko) Chrome/128.0.0.0 Safari/537.36" version="24.7.12">
  <diagram name="Page-1" id="intKut152tOKShC3BHe4">
    <mxGraphModel dx="1687" dy="927" grid="1" gridSize="10" guides="1" tooltips="1" connect="1" arrows="1" fold="1" page="1" pageScale="1" pageWidth="827" pageHeight="1169" math="0" shadow="0">
      <root>
        <mxCell id="0" />
        <mxCell id="1" parent="0" />
        <mxCell id="RanBQVhL90uRtSfIhLLd-1" value="" style="edgeStyle=orthogonalEdgeStyle;rounded=1;orthogonalLoop=1;jettySize=auto;html=1;labelBackgroundColor=none;strokeColor=#E07A5F;fontColor=default;align=center;fontStyle=1" edge="1" parent="1" source="RanBQVhL90uRtSfIhLLd-2" target="RanBQVhL90uRtSfIhLLd-4">
          <mxGeometry relative="1" as="geometry" />
        </mxCell>
        <mxCell id="RanBQVhL90uRtSfIhLLd-2" value="START" style="ellipse;whiteSpace=wrap;html=1;rounded=1;labelBackgroundColor=none;fillColor=#F2CC8F;strokeColor=#E07A5F;fontColor=#393C56;align=center;fontStyle=1" vertex="1" parent="1">
          <mxGeometry x="354" y="118" width="120" height="80" as="geometry" />
        </mxCell>
        <mxCell id="RanBQVhL90uRtSfIhLLd-19" value="" style="edgeStyle=orthogonalEdgeStyle;rounded=0;orthogonalLoop=1;jettySize=auto;html=1;strokeColor=#E07A5F;fontColor=#393C56;fillColor=#F2CC8F;fontStyle=1" edge="1" parent="1" source="RanBQVhL90uRtSfIhLLd-4" target="RanBQVhL90uRtSfIhLLd-17">
          <mxGeometry relative="1" as="geometry" />
        </mxCell>
        <mxCell id="RanBQVhL90uRtSfIhLLd-4" value="INPUT N" style="shape=parallelogram;perimeter=parallelogramPerimeter;whiteSpace=wrap;html=1;fixedSize=1;rounded=1;labelBackgroundColor=none;fillColor=#F2CC8F;strokeColor=#E07A5F;fontColor=#393C56;align=center;fontStyle=1" vertex="1" parent="1">
          <mxGeometry x="299" y="268" width="230" height="60" as="geometry" />
        </mxCell>
        <mxCell id="RanBQVhL90uRtSfIhLLd-5" value="END" style="ellipse;whiteSpace=wrap;html=1;rounded=1;labelBackgroundColor=none;fillColor=#F2CC8F;strokeColor=#E07A5F;fontColor=#393C56;align=center;fontStyle=1" vertex="1" parent="1">
          <mxGeometry x="354" y="774" width="120" height="80" as="geometry" />
        </mxCell>
        <mxCell id="RanBQVhL90uRtSfIhLLd-6" value="&lt;h1 style=&quot;margin-top: 0px;&quot;&gt;Calculate N Factorial&lt;br&gt;&lt;/h1&gt;" style="text;html=1;whiteSpace=wrap;overflow=hidden;rounded=1;labelBackgroundColor=none;fontColor=#393C56;align=center;" vertex="1" parent="1">
          <mxGeometry x="41" y="40" width="760" height="50" as="geometry" />
        </mxCell>
        <mxCell id="RanBQVhL90uRtSfIhLLd-18" value="" style="edgeStyle=orthogonalEdgeStyle;rounded=0;orthogonalLoop=1;jettySize=auto;html=1;strokeColor=#E07A5F;fontColor=#393C56;fillColor=#F2CC8F;fontStyle=1" edge="1" parent="1" source="RanBQVhL90uRtSfIhLLd-9" target="RanBQVhL90uRtSfIhLLd-16">
          <mxGeometry relative="1" as="geometry" />
        </mxCell>
        <mxCell id="RanBQVhL90uRtSfIhLLd-21" value="" style="edgeStyle=orthogonalEdgeStyle;rounded=0;orthogonalLoop=1;jettySize=auto;html=1;strokeColor=#E07A5F;fontColor=#393C56;fillColor=#F2CC8F;fontStyle=1" edge="1" parent="1" source="RanBQVhL90uRtSfIhLLd-9" target="RanBQVhL90uRtSfIhLLd-11">
          <mxGeometry relative="1" as="geometry" />
        </mxCell>
        <mxCell id="RanBQVhL90uRtSfIhLLd-9" value="LOOP FROM i = 1 TO N" style="rhombus;whiteSpace=wrap;html=1;fillColor=#F2CC8F;strokeColor=#E07A5F;labelBackgroundColor=none;fontColor=#393C56;align=center;fontStyle=1" vertex="1" parent="1">
          <mxGeometry x="313" y="489" width="201" height="130" as="geometry" />
        </mxCell>
        <mxCell id="RanBQVhL90uRtSfIhLLd-22" value="" style="edgeStyle=orthogonalEdgeStyle;rounded=0;orthogonalLoop=1;jettySize=auto;html=1;strokeColor=#E07A5F;fontColor=#393C56;fillColor=#F2CC8F;fontStyle=1" edge="1" parent="1" source="RanBQVhL90uRtSfIhLLd-11" target="RanBQVhL90uRtSfIhLLd-5">
          <mxGeometry relative="1" as="geometry" />
        </mxCell>
        <mxCell id="RanBQVhL90uRtSfIhLLd-11" value="&lt;div&gt;OUTPUT FACTORIAL&lt;/div&gt;" style="shape=parallelogram;perimeter=parallelogramPerimeter;whiteSpace=wrap;html=1;fixedSize=1;fillColor=#F2CC8F;strokeColor=#E07A5F;fontColor=#393C56;labelBackgroundColor=none;align=center;fontStyle=1" vertex="1" parent="1">
          <mxGeometry x="354" y="664" width="120" height="60" as="geometry" />
        </mxCell>
        <mxCell id="RanBQVhL90uRtSfIhLLd-14" value="YES" style="text;html=1;align=center;verticalAlign=middle;whiteSpace=wrap;rounded=0;fontColor=#393C56;labelBackgroundColor=none;fontStyle=1" vertex="1" parent="1">
          <mxGeometry x="509" y="524" width="60" height="30" as="geometry" />
        </mxCell>
        <mxCell id="RanBQVhL90uRtSfIhLLd-15" value="NO" style="text;html=1;align=center;verticalAlign=middle;whiteSpace=wrap;rounded=0;fontColor=#393C56;labelBackgroundColor=none;fontStyle=1" vertex="1" parent="1">
          <mxGeometry x="414" y="620" width="60" height="30" as="geometry" />
        </mxCell>
        <mxCell id="RanBQVhL90uRtSfIhLLd-23" style="edgeStyle=orthogonalEdgeStyle;rounded=0;orthogonalLoop=1;jettySize=auto;html=1;exitX=0.5;exitY=0;exitDx=0;exitDy=0;strokeColor=#E07A5F;fontColor=#393C56;fillColor=#F2CC8F;fontStyle=1" edge="1" parent="1">
          <mxGeometry relative="1" as="geometry">
            <mxPoint x="414" y="463" as="targetPoint" />
            <mxPoint x="669" y="537" as="sourcePoint" />
            <Array as="points">
              <mxPoint x="669" y="463" />
            </Array>
          </mxGeometry>
        </mxCell>
        <mxCell id="RanBQVhL90uRtSfIhLLd-16" value="FACTORIAL = FACTORIAL * i" style="rounded=0;whiteSpace=wrap;html=1;labelBackgroundColor=none;fillColor=#F2CC8F;strokeColor=#E07A5F;fontColor=#393C56;fontStyle=1" vertex="1" parent="1">
          <mxGeometry x="580" y="524" width="180" height="60" as="geometry" />
        </mxCell>
        <mxCell id="RanBQVhL90uRtSfIhLLd-20" value="" style="edgeStyle=orthogonalEdgeStyle;rounded=0;orthogonalLoop=1;jettySize=auto;html=1;strokeColor=#E07A5F;fontColor=#393C56;fillColor=#F2CC8F;fontStyle=1" edge="1" parent="1" source="RanBQVhL90uRtSfIhLLd-17" target="RanBQVhL90uRtSfIhLLd-9">
          <mxGeometry relative="1" as="geometry" />
        </mxCell>
        <mxCell id="RanBQVhL90uRtSfIhLLd-17" value="INITIALIZE FACTORIAL =1" style="rounded=0;whiteSpace=wrap;html=1;labelBackgroundColor=none;fillColor=#F2CC8F;strokeColor=#E07A5F;fontColor=#393C56;fontStyle=1" vertex="1" parent="1">
          <mxGeometry x="319" y="380" width="190" height="60" as="geometry" />
        </mxCell>
      </root>
    </mxGraphModel>
  </diagram>
</mxfile>
